<?xml version="1.0" encoding="utf-8"?>
<!DOCTYPE svg PUBLIC "-//W3C//DTD SVG 1.0//EN" "http://www.w3.org/TR/2001/REC-SVG-20010904/DTD/svg10.dtd">
<svg version="1.0" xmlns="http://www.w3.org/2000/svg" width="1024px" height="1024px" viewBox="0 0 1024 1024" preserveAspectRatio="xMidYMid meet">
 <g fill="#e56711">
  <path d="M428.3 575.6 c-5.6 -1.8 -10.7 -5.1 -12.8 -8.2 l-1.6 -2.5 3.3 0.3 c2.3 0.2 3.6 1 4.5 2.8 0.7 1.4 1.3 2.2 1.3 1.8 0 -0.4 2.3 0.1 5 1.2 2.8 1.1 6 2 7.1 2 1.4 0 1.9 0.5 1.7 1.8 -0.4 2.2 -3.2 2.5 -8.5 0.8z"/>
  <path d="M444.8 576.2 c-1 -0.2 -1.8 -0.9 -1.8 -1.7 0 -0.9 2.1 -1.5 6.3 -2 4.1 -0.5 6.8 -1.4 8 -2.7 1 -1 3.1 -2.2 4.5 -2.5 1.6 -0.4 5.3 -3.6 9.2 -7.9 8.2 -9.1 9 -10.1 9 -11.3 0 -0.5 0.6 -1.6 1.3 -2.3 0.7 -0.7 2.1 -5.1 3.1 -9.8 2.4 -11.3 2.3 -11 4.1 -11 1.1 0 1.5 1 1.5 3.8 0 2.9 -0.3 3.4 -1.1 2.2 -0.8 -1.2 -0.9 -0.9 -0.5 1.2 0.8 3.8 -0.9 10.7 -3 12.2 -1.8 1.4 -3 5.1 -1.2 4 0.6 -0.4 0.9 -0.1 0.6 0.7 -0.3 0.8 -1 1.4 -1.6 1.4 -0.5 0 -1.4 0.4 -1.9 0.9 -0.5 0.6 -0.2 0.6 0.6 0.1 1.1 -0.6 1.3 -0.4 0.8 0.9 -0.4 1 -0.7 2 -0.7 2.2 0 0.3 -0.5 0.2 -1.2 -0.2 -0.7 -0.5 -0.8 -0.3 -0.4 0.5 1.1 1.8 -12.8 15.5 -14.8 14.8 -0.9 -0.4 -1.5 -0.1 -1.3 0.5 0.1 0.6 -0.4 1.3 -1.2 1.6 -0.9 0.3 -1.1 0 -0.7 -0.9 0.4 -0.8 -0.1 -0.4 -1.1 0.7 -2.5 3 -12 5.7 -16.5 4.6z"/>
  <path d="M234.7 574.9 c-0.9 -0.6 -1.5 -1.4 -1.2 -2 0.4 -0.5 0.2 -0.9 -0.2 -0.9 -1.2 0 -1 -6.4 0.2 -7.2 0.6 -0.5 0.5 -0.8 -0.3 -0.8 -1.7 0 -1.6 -30.6 0.1 -31.4 0.9 -0.3 0.8 -0.5 0 -0.5 -1.7 -0.1 -1.7 -2.6 0 -5.1 0.8 -1.5 0.9 -2.3 0.1 -2.8 -1.4 -0.9 -1.4 -7.2 0 -7.2 0.6 0 0.4 -0.5 -0.4 -1 -1.3 -0.9 -1.3 -1 0 -1 1.3 0 1.3 -0.1 0 -1 -1.3 -0.8 -1.3 -1.3 -0.2 -3 0.7 -1.1 0.9 -2.6 0.5 -3.2 -0.3 -0.7 -0.8 -2.6 -0.9 -4.3 -0.2 -2.4 -0.1 -2.6 0.6 -1 0.8 1.8 0.9 1.8 0.9 0.2 0.1 -1 0.5 -1.5 1.1 -1.2 0.6 0.4 1 13.3 1 35.6 l0 34.9 2.5 0 c3 0 3.3 1.5 0.6 3 -2.3 1.2 -2.2 1.2 -4.4 -0.1z"/>
  <path d="M306.8 574.6 c-2.8 -2 -2.2 -2.6 2.7 -2.6 l4.5 0 0 -6.5 c0 -5 0.4 -6.6 1.8 -7.5 1.6 -1.1 1.6 -1.1 0 -0.6 -1.6 0.5 -1.8 -0.2 -1.8 -4.4 l0 -5 -23.2 0 c-12.8 0 -24.3 -0.3 -25.5 -0.6 -2.4 -0.7 -3.3 -4.7 -1.3 -5.9 0.6 -0.3 1 0 1 0.7 0 0.8 1.3 1.5 3 1.6 1.6 0.1 4.1 0.7 5.4 1.2 1.5 0.5 2.8 0.6 3.1 0 0.5 -0.9 2.6 -0.7 5.6 0.5 1 0.3 2 0.2 2.3 -0.3 0.6 -1 13 -0.7 14.6 0.3 0.6 0.4 1 0.2 1 -0.4 0 -0.9 3.7 -0.7 6.8 0.4 0.6 0.2 1.2 0 1.2 -0.5 0 -0.6 2.4 -0.9 5.3 -0.9 2.8 0.1 4.4 0.3 3.5 0.6 -1 0.2 -1.8 1.1 -1.8 2 0 1.3 0.3 1.3 1.5 0.3 1.3 -1.1 1.5 0.5 1.5 13.3 l0 14.5 -2.7 0.5 c-1.6 0.3 -2.9 0.1 -3.1 -0.4 -0.2 -0.5 -1.3 -0.9 -2.3 -0.9 -1.1 0 -1.7 0.5 -1.4 1 0.8 1.3 0.4 1.2 -1.7 -0.4z"/>
  <path d="M330 572.4 c0 -3.2 0.2 -3.5 1.5 -2.4 1.3 1.1 1.4 1 0.9 -0.4 -0.3 -0.9 -1 -1.6 -1.5 -1.6 -0.5 0 -0.9 -19.2 -0.9 -44.8 0 -34.5 0.3 -45.1 1.3 -46.1 1 -1.1 1 -1.3 0 -0.7 -0.8 0.4 -1.3 0.1 -1.3 -0.8 0 -0.8 0.8 -1.4 1.9 -1.3 1.1 0 1.7 0.5 1.5 0.9 -0.3 0.4 0.4 0.8 1.6 0.8 1.2 0 1.8 -0.4 1.5 -1 -0.8 -1.3 9 -1.3 11.6 0 3.7 2.1 1.8 3 -6.1 3 -7.6 0 -8 0.1 -8 2.3 -0.1 7.8 -0.1 39.4 -0.1 63.5 l0.1 28.2 5 0 c3.6 0 5 0.4 5 1.4 0 1.4 -3.4 2.8 -4.5 1.8 -0.3 -0.3 -1.1 -0.7 -1.8 -0.8 -0.7 -0.1 -2 -0.5 -2.9 -0.9 -1.2 -0.5 -2 -0.2 -2.4 0.9 -1.1 2.8 -2.4 1.7 -2.4 -2z m1.7 -66.1 c-0.3 -1 -0.5 -0.2 -0.5 1.7 0 1.9 0.2 2.7 0.5 1.8 0.2 -1 0.2 -2.6 0 -3.5z"/>
  <path d="M354.3 574.5 c-2 -2.2 -1.6 -2.5 3.6 -2.5 4.2 0 5 0.3 4.8 1.8 -0.1 1.8 -2.7 2.7 -2.7 1 0 -0.4 -1 -0.8 -2.2 -0.8 -1.9 0 -2 0.2 -0.8 1 1.3 0.9 1.3 1 0 0.9 -0.8 0 -2.1 -0.6 -2.7 -1.4z"/>
  <path d="M379.7 575.3 c-1.1 -1 -0.8 -112 0.3 -114.8 0.6 -1.5 0.5 -2.5 -0.1 -2.7 -1.3 -0.4 0.2 -4.2 1.9 -4.5 0.9 -0.2 1.2 12.1 1.2 59.2 0 52.2 0.2 59.5 1.5 59.5 1.9 0 1.9 0.7 0.1 2.6 -1.6 1.5 -3.8 1.8 -4.9 0.7z"/>
  <path d="M397.5 575.1 c0.6 -1.1 0.4 -1.3 -0.9 -0.8 -1.2 0.5 -1.6 0.3 -1.4 -0.5 0.3 -0.9 3.3 -1.4 9.1 -1.6 7.3 -0.2 8.7 0 8.7 1.3 0 0.8 -0.4 1.6 -1 1.6 -4.4 0.6 -7.7 0.4 -8.9 -0.5 -1.1 -0.8 -1.3 -0.8 -0.8 0 0.3 0.6 0 1.1 -0.8 1.1 -0.8 0 -1.2 -0.4 -0.9 -0.9 0.8 -1.3 -1 -1 -2.5 0.5 -1.1 1 -1.2 0.9 -0.6 -0.2z"/>
  <path d="M505.1 501.8 c0 -40.6 0.2 -73.8 0.4 -73.8 0.2 0 1 0.3 1.9 0.6 1.4 0.6 1.6 6.9 1.6 61.5 l0 60.9 3.3 -2 c2.4 -1.5 5 -2 10.4 -2 3.9 0 7.5 -0.4 7.8 -1 0.3 -0.5 1.4 -1 2.5 -1 1 0 2 -0.7 2.4 -1.5 0.3 -0.8 1.3 -1.5 2.3 -1.4 1.1 0 1.3 0.3 0.6 0.6 -0.7 0.2 -1.3 0.9 -1.3 1.4 0 0.6 0.5 0.7 1 0.4 1.1 -0.7 1.4 5.8 0.3 6.9 -1 1 -1.3 3.7 -0.3 3.1 0.4 -0.3 1 0.4 1.3 1.5 0.3 1.1 0.1 2.3 -0.4 2.6 -0.5 0.3 -0.7 0.9 -0.4 1.4 0.9 1.5 1.3 15 0.4 15.6 -0.5 0.3 -0.9 -0.1 -0.9 -0.8 0 -1 -0.2 -1 -0.9 0.1 -0.7 1.1 -3.2 1.2 -12.2 0.8 -6.3 -0.3 -12.5 -0.8 -13.9 -1.1 -2.2 -0.6 -2.2 -0.5 -0.5 0.3 1.6 0.8 1.3 1 -1.7 0.9 l-3.7 -0.2 0 -73.8z"/>
  <path d="M606.6 575.3 c-1.1 -1.1 -0.7 -39.5 0.4 -38.8 0.6 0.3 1 -0.1 1 -1 0 -0.9 -0.4 -1.3 -1 -1 -0.7 0.4 -1 -17.5 -1 -52.9 0 -52.6 0 -53.6 2 -53.6 1.9 0 1.9 1 2 59.2 0 32.5 0.1 59.3 0.3 59.4 0.2 0.2 5.8 0.5 12.5 0.7 l12.2 0.5 0 -31.9 c0.1 -17.6 0.1 -39.5 0.1 -48.9 0 -38.5 0.1 -36 -2.1 -36 -3.1 0 -2.3 -2.8 1 -3.5 1.6 -0.4 3.4 -0.4 4 0 0.6 0.4 1 26.4 1 74.5 l0 74 -10.9 -0.2 c-6.3 -0.1 -10.7 -0.6 -10.4 -1.1 0.3 -0.5 -0.3 -0.5 -1.3 0.1 -2.2 1.1 -8.8 1.4 -9.8 0.5z m31.1 -94 c-0.3 -1 -0.5 -0.2 -0.5 1.7 0 1.9 0.2 2.7 0.5 1.8 0.2 -1 0.2 -2.6 0 -3.5z m0 -32 c-0.3 -1 -0.5 -0.2 -0.5 1.7 0 1.9 0.2 2.7 0.5 1.8 0.2 -1 0.2 -2.6 0 -3.5z"/>
  <path d="M658 575.3 l-2.5 -0.4 0.3 -14.1 0.3 -14 5.2 0.7 c8.7 1.3 17.7 0.2 17.7 -2.1 0 -1 1.2 -1.4 3.9 -1.4 l3.9 0 0.7 11.3 c0.4 6.1 0.5 13.2 0.3 15.7 -0.3 4.4 -0.3 4.5 -4.3 4.7 -2.9 0.2 -3.6 0 -2.5 -0.7 1.2 -0.7 1 -0.9 -0.7 -0.7 -1.2 0 -1.9 0.5 -1.7 0.9 0.3 0.4 -1.2 0.8 -3.3 0.8 -2.8 0 -3.4 -0.3 -2.3 -1 0.9 -0.6 1 -1 0.3 -1 -0.6 0 -1.4 0.4 -1.7 0.8 -0.5 0.8 -9.4 1.2 -13.6 0.5z"/>
  <path d="M697.8 575.2 c-2.5 -0.5 -2.3 -1.5 1.1 -5.1 1.6 -1.7 2.7 -3.1 2.5 -3.1 -0.2 0 0.8 -1.8 2.2 -4 1.5 -2.2 3.1 -3.7 3.8 -3.3 0.6 0.3 0.8 0.3 0.4 -0.2 -1.1 -1.1 1.1 -4.7 2.4 -3.9 0.7 0.4 0.8 0.3 0.4 -0.4 -0.6 -1.1 4.8 -10.2 6 -10.2 0.3 0 0.2 0.5 -0.2 1.2 -0.4 0.7 -0.3 0.8 0.4 0.4 0.6 -0.4 0.9 -1.2 0.7 -1.9 -0.3 -0.7 1.2 -3.4 3.3 -6.2 3.6 -4.9 3.7 -4.9 4 -2.2 0.2 1.5 0.9 2.7 1.8 2.7 0.8 0 1.4 0.5 1.4 1.1 0 0.7 2.6 0.9 8.3 0.4 4.5 -0.3 8.7 -0.2 9.3 0.2 2.6 1.9 2.2 7.7 -1 13.3 -1.7 3 -3.8 6.9 -4.8 8.5 -0.9 1.7 -2.1 2.9 -2.8 2.7 -0.6 -0.1 -0.9 0.2 -0.5 0.8 0.3 0.5 -0.4 2.8 -1.7 5.1 -1.8 3.2 -2.7 4 -4.5 3.6 -1.3 -0.2 -2.3 0 -2.3 0.4 0 1.3 -5.4 1.1 -6.8 -0.3 -0.9 -0.9 -1.2 -0.9 -1.2 -0.1 0 0.7 -0.9 1 -2 0.7 -1.1 -0.2 -2.9 -0.6 -4 -0.8 -1.1 -0.3 -2 -0.1 -2 0.5 0 0.5 -1.8 0.9 -4.1 0.9 -2.4 0 -3.8 -0.4 -3.4 -1 0.3 -0.5 0.1 -1 -0.5 -1 -0.6 0 -0.8 -0.5 -0.4 -1.2 0.7 -1.1 -2.1 0.6 -3.6 2.2 -0.3 0.3 -1.3 0.4 -2.2 0.2z"/>
  <path d="M770.4 575.3 c-2.4 -0.5 -11.8 -15.8 -10.8 -17.6 0.4 -0.7 0.3 -0.9 -0.1 -0.4 -1.1 0.9 -7.4 -9 -7.5 -11.6 0 -1 -0.4 -1.5 -1 -1.2 -0.6 0.4 -1 -0.8 -1 -2.8 l0 -3.4 7.7 -0.7 c4.2 -0.3 8.2 -1.1 8.7 -1.6 0.6 -0.6 2 -1 3.3 -1 1.3 0 2.3 -0.3 2.3 -0.7 -0.1 -2 -3 -4.3 -5.4 -4.3 -2.3 0 -2.6 -0.4 -2.6 -3.5 0 -2.7 0.4 -3.5 1.8 -3.5 1.5 0 1.8 -0.6 1.4 -2.9 -0.3 -2.1 0.5 -4.2 2.7 -7.5 1.7 -2.5 3.7 -4.9 4.4 -5.3 0.6 -0.4 2 -2.4 3 -4.4 1 -1.9 3.5 -5.4 5.6 -7.6 2 -2.3 4.2 -5.3 4.9 -6.7 0.6 -1.5 1.9 -2.9 2.7 -3.2 0.8 -0.4 1.5 -1.2 1.5 -1.9 0 -0.7 1.3 -2.7 2.9 -4.4 1.5 -1.6 2.6 -3.3 2.3 -3.6 -0.3 -0.3 0.5 -0.5 1.7 -0.5 1.4 0 2 0.4 1.6 1.3 -0.4 0.6 0.1 0.3 0.9 -0.7 0.9 -1.1 1.6 -1.4 1.6 -0.8 0 0.7 -0.9 2.1 -2 3.2 -1.1 1.1 -2.1 2.3 -2.2 2.7 -0.2 0.5 -0.7 0.7 -1.1 0.5 -0.5 -0.1 -0.6 0.1 -0.3 0.6 0.9 1.5 -26.1 38.2 -28.1 38.2 -1.1 0 -1.1 0.4 -0.1 2.3 0.7 1.2 1.1 2.6 1 3 -0.1 0.5 0.2 0.6 0.7 0.3 0.5 -0.4 2.4 1.4 4 3.8 3.3 4.7 3.8 6.2 1.9 5 -0.7 -0.4 -0.8 -0.3 -0.4 0.5 0.4 0.6 1.1 0.9 1.6 0.6 1 -0.6 7.3 8.2 7.3 10.2 0 0.7 0.3 1.1 0.5 0.8 0.6 -0.5 9.2 11 9.2 12.2 0 0.5 -0.4 0.2 -0.9 -0.5 -0.7 -1.1 -0.9 -1.1 -1.4 0.1 -0.4 1.1 0 1.5 1.4 1.2 1.5 -0.3 2.9 1 5.8 5.5 4.1 6.4 4.8 10.3 1.7 10.8 -1 0.2 -1.6 0 -1.3 -0.5 0.7 -1.1 -2.9 -1 -3.9 0 -1 0.9 -11.2 0.9 -11.7 0 -0.4 -0.7 -8.2 -0.9 -8.9 -0.3 -0.7 0.4 -3.5 0.6 -5.4 0.3z"/>
  <path d="M426.1 550.9 c-5.5 -1.1 -7.3 -2.6 -6.9 -5.8 0.2 -2 -0.2 -2.6 -2.2 -3.1 -3.5 -0.8 -5.3 -5.2 -5.8 -14.4 -0.7 -11.1 1.8 -20.7 6.4 -25.3 0.7 -0.7 2.7 -1.3 4.5 -1.3 3.1 0 3.2 0.1 1.5 1.9 -1 1.1 -2.3 1.8 -2.9 1.7 -0.7 -0.2 -0.9 -0.1 -0.5 0.1 0.4 0.3 0 1.5 -0.8 2.9 -0.9 1.3 -2 2.2 -2.4 1.9 -0.5 -0.3 -0.9 0.3 -0.9 1.2 -0.1 1 -0.4 6.1 -0.7 11.4 -0.5 8.4 -0.4 10.1 1.6 14.7 3.8 8.8 11.5 12.6 21.5 10.8 5.3 -1 11.9 -7.5 13.5 -13.1 1.6 -5.8 1.7 -14.8 0.1 -20.5 -1.6 -5.5 -9.6 -14 -13.2 -14 -1.4 0 -3.5 -0.7 -4.7 -1.6 -2 -1.4 -2.2 -1.4 -2.2 0 0 0.9 -0.9 1.6 -2 1.6 -1.3 0 -2 -0.7 -2 -2 0 -1.8 0.7 -2 6.5 -2 5.1 0 6.5 0.3 6.5 1.5 0 1 1 1.5 2.9 1.5 3.2 0 8.1 3.4 8.1 5.6 0 0.8 0.5 1.4 1 1.4 0.6 0 1 1.1 1 2.4 0 1.3 0.6 2.6 1.3 2.8 2.9 1 1.7 28.8 -1.3 28.8 -0.6 0 -1 0.9 -1 1.9 0 2.6 -6.1 7.8 -10.7 9 -4.4 1.3 -9.9 1.2 -16.2 0z"/>
  <path d="M266.2 538.7 c-0.1 -2.3 -0.6 -3.6 -1.2 -3.2 -0.6 0.4 -0.7 1.1 -0.4 1.7 0.4 0.7 0.2 0.8 -0.4 0.4 -1.4 -0.9 -1.6 -15.2 -0.3 -16.1 0.5 -0.3 1.2 0.3 1.4 1.2 0.3 1 0.5 -0.2 0.5 -2.7 0 -3 -0.2 -3.9 -0.7 -2.6 -1.3 3.3 -1.9 0.5 -1.9 -8.8 -0.1 -9.3 0.6 -12.4 1.9 -9 0.5 1.2 0.7 0.2 0.7 -3.1 0 -2.7 -0.2 -4.2 -0.5 -3.2 -0.7 2.8 -2.3 0.9 -2.3 -2.8 0 -3.7 1.6 -5.6 2.3 -2.8 0.3 1 0.5 0 0.5 -2.2 0 -2.2 -0.2 -3.2 -0.5 -2.2 -0.6 2.4 -2.3 1.1 -2.3 -1.8 0 -2.9 1.7 -4.2 2.3 -1.8 0.3 1 0.5 -8.1 0.5 -20.2 0 -12.1 -0.2 -21.4 -0.5 -20.7 -1.1 2.7 -2.3 1 -2.3 -3.3 0 -2.5 -0.4 -4.5 -1 -4.5 -0.5 0 -1 -0.6 -1 -1.4 0 -1.3 4.7 -3.2 5.6 -2.3 0.2 0.2 0.3 26.2 0.1 57.8 -0.1 31.6 -0.3 55.7 -0.5 53.6z m-0.2 -32.2 c0 -1.4 -0.4 -2.5 -0.9 -2.5 -0.4 0 -0.6 1.1 -0.3 2.5 0.2 1.4 0.6 2.5 0.8 2.5 0.2 0 0.4 -1.1 0.4 -2.5z"/>
  <path d="M536 530.5 c0 -6.9 0.3 -8.5 1.5 -8.5 0.8 0 1.5 0.6 1.6 1.3 0.9 11.7 0.4 15.7 -1.7 15.7 -1.1 0 -1.4 -1.9 -1.4 -8.5z"/>
  <path d="M730.8 523.7 c0.9 -1 0.5 -2.2 -1.3 -5 -1.5 -2.1 -2.2 -4.3 -1.9 -5.4 0.4 -1.3 0.3 -1.5 -0.4 -0.5 -0.7 1 -3 -1.6 -9.2 -10.4 -4.6 -6.5 -8.3 -12.4 -8.3 -13.1 0 -0.7 -0.3 -1.1 -0.5 -0.8 -0.9 0.8 -6.2 -7.9 -5.7 -9.2 0.2 -0.7 -0.1 -1.5 -0.7 -1.9 -0.7 -0.5 -0.8 -0.2 -0.3 0.7 0.4 0.8 0 0.6 -1.1 -0.3 -1.4 -1.4 -1.6 -2 -0.6 -3 0.9 -0.9 1.2 -0.9 1.2 0.2 0 1 0.3 1.1 1.1 0.3 1.4 -1.4 4.9 -0.5 4.9 1.2 0 0.7 -0.6 1.6 -1.2 1.8 -1 0.4 -1 0.6 0 0.6 0.6 0.1 1.2 0.8 1.2 1.6 0 0.8 0.4 1.5 1 1.5 0.9 0 8 10.4 8 11.8 0 0.4 0.8 1.2 1.8 1.8 0.9 0.7 2.6 2.9 3.7 5 1.1 2.1 3 4.8 4.3 6 1.2 1.3 2.2 3 2.2 3.9 0 0.8 0.5 1.5 1 1.5 0.6 0 1 0.6 1 1.3 0 0.7 0.9 1.8 2 2.5 1.5 0.9 2 2.3 2 5.2 0 3.6 -0.2 4 -2.6 4 -2.1 0 -2.4 -0.3 -1.6 -1.3z"/>
  <path d="M485.6 515.3 c-1 -4.3 -2.5 -9.3 -3.2 -11.2 -0.8 -1.8 -1.4 -4.4 -1.4 -5.7 0 -1.5 -0.6 -2.4 -1.5 -2.4 -2 0 -6.4 -5 -6.5 -7.2 0 -1 -0.6 -1.5 -1.2 -1.3 -0.7 0.3 -2.9 -1 -4.8 -2.9 -2 -1.8 -4.6 -3.6 -5.8 -4 -1.2 -0.4 -2.2 -1.2 -2.2 -1.7 0 -0.6 -0.4 -0.8 -0.9 -0.5 -0.5 0.3 -2.5 -0.1 -4.5 -0.9 -1.9 -0.8 -4.9 -1.5 -6.6 -1.5 -3.2 0 -4.4 -2.9 -1.2 -3.1 5.7 -0.4 15.2 1.7 15.2 3.4 0 0.6 0.3 0.7 0.6 0.4 1 -0.9 4.6 1.2 3.9 2.3 -0.3 0.6 0 0.7 0.8 0.5 1.7 -0.7 6.9 3.3 6.1 4.7 -0.4 0.6 -0.2 0.8 0.3 0.5 1.3 -0.8 3.6 1.7 2.5 2.7 -0.4 0.4 -0.1 0.6 0.6 0.4 0.7 -0.2 2.5 1.3 4 3.1 1.5 1.9 2.1 3.2 1.5 2.7 -0.7 -0.4 -1.3 -0.3 -1.3 0.3 0 0.6 0.9 1.5 2.1 2.1 1.1 0.7 2.7 2.6 3.4 4.4 2.1 4.9 4.7 17.3 4.2 19.3 -0.3 1.1 -0.6 0.7 -0.7 -1.2 -0.3 -2.8 -0.3 -2.7 -0.9 0.8 -0.6 3.8 -0.7 3.6 -2.5 -4z"/>
  <path d="M538 517.7 l0 -2.7 16 0 c13.2 0 16 0.3 16 1.4 0 0.8 -1.2 1.7 -2.7 1.9 -4 0.7 -15.7 0.2 -17.3 -0.8 -0.9 -0.6 -1.1 -0.4 -0.5 0.4 0.6 1 -0.4 1.2 -4.3 0.8 -2.9 -0.3 -5.5 0 -6.1 0.6 -0.8 0.8 -1.1 0.3 -1.1 -1.6z"/>
  <path d="M752.2 497.5 c2.9 -4.4 3.8 -4.4 3.8 0 0 3.2 -0.2 3.5 -3 3.5 l-3 0 2.2 -3.5z"/>
  <path d="M232.1 499 c-0.1 -0.9 0.5 -2.2 1.2 -2.9 1 -1.1 1 -1.3 0 -0.7 -1 0.5 -1.3 -0.5 -1.3 -3.8 0 -3 0.4 -4.6 1.3 -4.6 0.8 0 0.7 -0.4 -0.3 -1 -0.9 -0.6 -1 -1 -0.3 -1 0.7 0 1.1 -1.2 1 -2.9 -0.1 -1.6 -0.5 -2.7 -0.9 -2.4 -0.5 0.2 -0.8 -0.3 -0.8 -1.1 0 -0.9 0.6 -1.6 1.3 -1.6 0.9 0 0.9 -0.2 0 -0.8 -1.6 -1 -0.5 -5.2 1.3 -5.2 1.1 0 1.4 2.7 1.4 13.9 0 8.3 -0.4 14.2 -1 14.6 -0.5 0.3 -1 -0.2 -1.1 -1.2 0 -1.6 -0.1 -1.6 -0.9 0.2 -0.6 1.4 -0.9 1.5 -0.9 0.5z"/>
  <path d="M743.9 496.2 c-0.9 -0.9 -2.9 -4.1 -4.4 -7 -1.5 -2.9 -3.1 -5.5 -3.6 -5.8 -0.5 -0.3 -0.9 -1.4 -0.9 -2.5 0 -1 -0.4 -1.9 -1 -1.9 -0.5 0 -1 -0.9 -1 -2 0 -1.3 0.7 -2 1.9 -2 1.4 0 1.7 0.6 1.3 2.5 -0.3 1.6 0 2.5 0.8 2.5 0.7 0 1 -0.7 0.6 -1.5 -1.1 -2.9 0.3 -1.4 2.9 3 1.5 2.4 2.3 5 1.9 5.6 -0.4 0.8 -0.3 0.9 0.4 0.5 0.7 -0.4 2.1 1.3 3.7 4.3 1.4 2.8 2.5 5.3 2.5 5.6 0 1.2 -3.6 0.3 -5.1 -1.3z"/>
  <path d="M580 493 c0 -1.3 0.7 -2 1.9 -2 1.4 0 1.8 0.5 1.4 2 -0.3 1.1 -1.2 2 -1.9 2 -0.8 0 -1.4 -0.9 -1.4 -2z"/>
  <path d="M756.2 491.1 c0.7 -1.1 1.6 -1.7 2.2 -1.4 0.5 0.3 0.6 0.1 0.2 -0.5 -0.9 -1.5 5.2 -11.2 7 -11.2 2.2 0 3 3.1 1.1 4.5 -1 0.7 -1.7 1.7 -1.7 2.4 0 0.6 -0.4 1.1 -1 1.1 -0.5 0 -1 0.8 -1 1.8 -0.1 2.8 -2.5 5.2 -5.4 5.2 -2.3 0 -2.5 -0.2 -1.4 -1.9z"/>
  <path d="M411 482.5 c0 -2.4 0.5 -3.5 1.5 -3.5 0.8 0 1.5 0.7 1.5 1.5 0 1.9 1.4 1.9 3 0 2.1 -2.6 9.6 -6.4 13.9 -7.1 3.7 -0.6 4.1 -0.4 4.1 1.4 0 1.5 -1 2.2 -4.6 3.1 -2.8 0.7 -6.1 2.6 -8.3 4.6 -2.8 2.7 -4.5 3.5 -7.3 3.5 -3.7 0 -3.8 -0.1 -3.8 -3.5z"/>
  <path d="M656 479.1 c0 -0.5 -0.3 -1.6 -0.6 -2.5 -0.4 -1.2 0 -1.6 1.5 -1.6 1.6 0 2.1 0.6 2.1 2.5 0 1.6 -0.6 2.5 -1.5 2.5 -0.8 0 -1.5 -0.4 -1.5 -0.9z"/>
  <path d="M766.7 477.6 c-1.5 -1.1 -1.5 -1.5 -0.3 -2.5 1.8 -1.5 6.6 -0.4 6.6 1.5 0 0.8 -0.4 1.4 -0.9 1.4 -0.5 0 -1.5 0.2 -2.3 0.5 -0.7 0.2 -2.1 -0.2 -3.1 -0.9z"/>
  <path d="M351.5 477 c-0.3 -0.5 0.1 -1 1 -1 0.9 0 1.3 -0.4 1 -1 -0.3 -0.5 0.1 -1 1 -1 0.9 0 1.4 0.4 1.1 0.8 -0.2 0.4 0.7 0.8 2.2 0.9 2.4 0.2 2.4 0.1 0.7 -0.7 -1.7 -0.7 -1.5 -0.9 1.3 -0.9 2.7 -0.1 3.2 0.3 3.1 2.2 0 2.1 -0.1 2.1 -0.9 0.2 -0.7 -1.7 -0.9 -1.7 -0.9 -0.2 -0.1 1.3 -1 1.7 -4.5 1.7 -2.5 0 -4.8 -0.4 -5.1 -1z"/>
  <path d="M684 476.6 c0 -0.7 0.9 -1.6 2 -1.9 1.5 -0.4 2 0 2 1.4 0 1.2 -0.7 1.9 -2 1.9 -1.1 0 -2 -0.6 -2 -1.4z"/>
  <path d="M775 476.6 c0 -1.6 2.5 -2.4 5.3 -1.8 3.2 0.8 1.9 3.2 -1.8 3.2 -2.4 0 -3.5 -0.5 -3.5 -1.4z"/>
  <path d="M436 474.6 c0 -1.6 2.5 -2.4 5.3 -1.8 3.2 0.8 1.9 3.2 -1.8 3.2 -2.4 0 -3.5 -0.5 -3.5 -1.4z"/>
  <path d="M537.3 472.3 c-1.8 -0.7 -1.7 -5.3 0.1 -5.3 0.7 0 1.6 0.9 1.9 2 0.3 1.3 0.1 1.8 -0.6 1.3 -0.6 -0.4 -0.8 0 -0.4 1 0.3 1 0.5 1.7 0.4 1.6 -0.1 0 -0.8 -0.3 -1.4 -0.6z"/>
  <path d="M233.5 468.7 c-1.5 -1.9 -1.6 -3.3 -0.5 -6.2 0.6 -1.4 0.6 -2.4 0.1 -2.1 -0.4 0.3 -0.9 -4.6 -1 -10.9 -0.1 -10.9 0 -11.5 1.9 -11.5 1.9 0 2 0.7 2 16 0 8.8 -0.3 16 -0.7 16 -0.5 -0.1 -1.2 -0.6 -1.8 -1.3z"/>
  <path d="M344.5 463.5 c-0.5 -0.2 -2.7 -0.6 -4.7 -1 -2.3 -0.3 -3.8 -1.2 -3.8 -2 0 -0.8 -0.5 -1.7 -1.2 -2.1 -0.7 -0.5 -0.8 -0.3 -0.3 0.7 0.8 1.2 0.6 1.2 -0.8 0 -0.9 -0.7 -1.4 -1.8 -1 -2.4 0.3 -0.6 0.1 -0.7 -0.6 -0.3 -1.5 0.9 -5 -6.7 -5.1 -10.9 0 -6.6 4.6 -15.5 7.3 -13.8 0.6 0.3 0.7 0.1 0.3 -0.5 -0.4 -0.6 0.5 -1.7 2.1 -2.5 3.4 -1.7 10.3 -2.9 10.3 -1.8 0 0.5 1.1 0.6 2.5 0.3 1.6 -0.3 2.5 0 2.5 0.9 0 0.7 0.3 0.9 0.6 0.6 1.1 -1 4.5 1.3 3.8 2.5 -0.4 0.6 -0.3 0.8 0.4 0.4 1.2 -0.7 5.2 3.1 5.2 5 0 0.6 -0.7 1.5 -1.6 1.8 -1.8 0.7 -4.4 -1 -4.4 -2.8 0 -0.6 -2.2 -2.1 -5 -3.4 -5.4 -2.5 -11.4 -2.3 -12.4 0.4 -0.3 0.8 -1.6 1.4 -2.8 1.4 -2 0 -2.5 0.8 -3.6 5.3 -1.7 7.6 -1.6 12.7 0.4 12.7 0.9 0 1.8 0.9 2.1 2 0.3 1.1 1.2 2 1.9 2 0.8 0 1.4 0.4 1.4 0.9 0 1.3 8.2 3.1 11 2.4 1.4 -0.4 3.1 -1.3 3.8 -2 0.7 -0.7 2 -1.3 2.8 -1.3 0.8 0 1.4 -0.9 1.4 -2 0 -1.1 0.5 -2 1 -2 0.6 0 1 -0.7 1 -1.5 0 -0.8 0.3 -1.5 0.8 -1.5 0.4 0 0.6 -1.7 0.4 -3.9 -0.2 -2.1 0.1 -4.2 0.7 -4.5 0.6 -0.4 1.1 0 1.1 1.1 0 1.5 0.2 1.6 1 0.3 0.7 -1.1 1 -0.3 0.9 3 0 3.6 -0.2 4.1 -1 2.5 -0.7 -1.5 -0.8 -1.1 -0.4 1.7 0.5 3.2 0.1 4.2 -3.1 7.8 -2.5 2.8 -5.2 4.4 -8.7 5.5 -2.8 0.8 -5.1 1.5 -5.1 1.4 -0.1 0 -0.5 -0.2 -1.1 -0.4z"/>
  <path d="M664.4 461.6 c-1.8 -0.8 -3.5 -2 -3.9 -2.7 -0.6 -0.8 -0.4 -1 0.6 -0.4 0.8 0.5 1.1 0.4 0.6 -0.1 -0.5 -0.5 -1.4 -0.9 -2 -0.9 -2.1 0 -4.8 -6.3 -4.8 -11.2 0.1 -7.4 0.3 -8.7 1.7 -10 2.3 -2.3 2.6 -1.4 2 5 -0.5 5.7 -0.4 6.5 2.2 10.2 1.5 2.2 4.5 4.9 6.7 6 3.9 2.1 6.3 5.1 2.9 3.8 -1.2 -0.4 -1.5 -0.3 -1 0.5 0.9 1.6 -1.1 1.5 -5 -0.2z"/>
  <path d="M673 461.1 c0 -1.5 1.2 -2.2 5 -3.2 2.8 -0.7 5 -1.8 5 -2.5 0 -0.7 0.6 -1.7 1.4 -2.1 0.8 -0.4 1.6 -1.9 1.8 -3.3 0.2 -1.7 1 -2.6 2.6 -2.8 2.8 -0.4 2.9 1.6 0.2 6.8 -1.6 3 -2.6 4 -4.5 4 -1.4 0 -2.5 0.5 -2.5 1.1 0 0.5 0.5 0.7 1 0.4 0.6 -0.3 1 -0.4 1 -0.1 0 1.1 -6 3.6 -8.5 3.6 -1.8 0 -2.5 -0.5 -2.5 -1.9z"/>
  <path d="M583.8 455.3 c-3.1 -0.8 -2.1 -3.3 1.2 -3.3 2.5 0 3 -0.4 3 -2.5 0 -1.6 0.6 -2.5 1.5 -2.5 1.5 0 1.7 0.8 1.7 5 0 1.1 0 2.4 -0.1 2.8 -0.1 0.9 -4.7 1.2 -7.3 0.5z"/>
  <path d="M379.7 449.6 c-0.9 -4 -0.2 -21.1 0.8 -21.3 0.6 0 0.9 0.4 0.7 1 -0.2 0.6 0.5 0.4 1.4 -0.4 1.6 -1.3 1.7 -1.2 1.1 1.1 -0.4 1.4 -0.7 6.8 -0.7 12.1 0 7.6 -0.3 9.6 -1.4 9.6 -0.8 0 -1.7 -1 -1.9 -2.1z"/>
  <path d="M686.6 442.8 c-0.3 -1.3 -0.6 -3.3 -0.6 -4.5 0 -1.3 -0.5 -2.3 -1.2 -2.3 -2.5 0 -7.8 -4.5 -7.8 -6.7 0 -2.4 0.7 -2.8 2.8 -1.5 0.7 0.5 1 1.6 0.6 2.8 -0.6 1.8 -0.6 1.8 0.7 0.2 1.3 -1.6 1.5 -1.6 3.4 0 2.5 2.1 5.5 6.3 5.5 7.7 0 0.5 -0.5 0.3 -1 -0.5 -0.7 -1 -1 -1.1 -1 -0.2 0 0.7 0.7 1.5 1.5 1.8 0.8 0.4 1.5 1.7 1.5 3 0 3.2 -3.5 3.3 -4.4 0.2z"/>
  <path d="M412 432 c1.1 -0.7 0.4 -1 -2.7 -1 -3.2 0 -4.3 -0.4 -4.3 -1.5 0 -0.8 0.6 -1.5 1.3 -1.6 0.6 -0.1 2.6 -0.2 4.2 -0.4 1.7 -0.1 3.3 0.2 3.6 0.7 1.1 1.7 -0.2 4.8 -2 4.8 -1.4 0 -1.4 -0.2 -0.1 -1z"/>
  <path d="M663 431.5 c1 -1.2 1 -1.5 -0.1 -1.6 -2.1 -0.1 4.3 -2.8 6.9 -2.9 1.3 0 2.2 0.6 2.2 1.5 0 1.7 -5 4.5 -8.1 4.5 -1.8 0 -1.9 -0.2 -0.9 -1.5z"/>
  <path d="M232.4 429.4 c0.3 -0.9 0.6 -1.7 0.6 -1.9 0 -0.2 0.9 -0.1 2 0.2 3 0.8 2.5 3.3 -0.6 3.3 -2 0 -2.5 -0.4 -2 -1.6z"/>
  <path d="M253 430.4 c0 -1.4 3.4 -3.1 5.2 -2.6 3.3 0.8 2.1 3.2 -1.7 3.2 -1.9 0 -3.5 -0.3 -3.5 -0.6z"/>
 </g>
 <g fill="#ee6e11">
  <path d="M506 501.5 l0 -73.2 42.5 0 42.5 -0.1 0 13.4 0 13.5 -19.7 -0.2 c-10.9 0 -22.6 -0.1 -26 0 l-6.3 0.1 0 3.5 c0 1.9 -0.4 3.5 -1 3.5 -0.5 0 -1 0.7 -1 1.6 0 0.9 0.5 1.2 1.1 0.8 1.2 -0.7 0.9 4.3 -0.5 8.1 -0.6 1.6 -0.6 1.7 0.3 0.5 0.7 -1.1 1.1 1 1.3 8 l0.3 9.5 21.8 0.3 21.7 0.2 0 13.5 0 13.5 -21 0 c-11.6 -0.1 -21.5 0.2 -22 0.5 -0.6 0.4 -1 5.7 -1 12.5 0 8.5 -0.4 12 -1.2 12.4 -1 0.5 -1 0.7 0 1.2 1.2 0.6 1.7 5.6 0.6 6.7 -1 1 -3.4 -0.4 -3.4 -2.1 0 -1.2 -0.3 -1.3 -1.2 -0.4 -0.7 0.7 -4.1 1.2 -8.1 1.2 -4.9 0 -8 0.6 -10.6 1.9 -2 1.1 -4.3 2.2 -5.3 2.4 -1.2 0.4 -1.8 2.4 -2.3 8.1 -0.8 8.3 -0.4 9.7 2.8 9.5 1.2 -0.1 6.8 -0.1 12.5 -0.1 8.5 0.2 10.2 0.5 10.2 1.8 0 1.3 -1.9 1.5 -13.5 1.3 l-13.5 -0.3 0 -73.1z"/>
  <path d="M534.8 573.9 c-0.7 -0.4 -1 -1.1 -0.6 -1.4 0.8 -0.8 4.8 0.4 4.8 1.4 0 1 -2.6 1 -4.2 0z"/>
  <path d="M607.6 574.3 c-1.8 -1.9 0.6 -2.3 12.8 -2.3 8.3 0 13.7 -0.4 14.1 -1 0.9 -1.5 -0.5 -20.1 -1.5 -19.5 -0.4 0.2 -2.2 0 -4 -0.5 -1.8 -0.5 -3.8 -0.6 -4.4 -0.3 -1.6 1 -8.6 1.1 -8.6 0.1 0 -1.1 -6.4 -1 -7.6 0.2 -0.6 0.6 -1 -20.1 -1 -61 l0.1 -61.9 15 0 15 0 0.1 72.7 c0.1 47.7 -0.2 72.9 -0.9 73.4 -1.3 0.8 -28.2 1 -29.1 0.1z"/>
  <path d="M656 525.1 l0 -49.9 16 0 15.9 -0.1 0.1 45.4 c0 38 -0.2 45.5 -1.3 45.5 -1.4 0 -2.7 -7.7 -2.7 -15.6 0 -1.9 -0.4 -3.4 -1 -3.4 -0.5 0 -1 0.7 -1 1.5 0 0.8 -0.9 1.5 -1.9 1.5 -1.1 0 -2.3 0.5 -2.6 1 -0.3 0.6 -1.6 0.8 -2.8 0.5 -1.2 -0.3 -3.9 0.1 -5.9 0.9 -3.2 1.4 -3.7 1.4 -4.2 0 -0.4 -1 -1.3 -1.3 -3.1 -0.8 -1.7 0.4 -2.5 0.2 -2.6 -0.7 -0.3 -4.5 -1.7 5.1 -1.8 12.5 l-0.1 8.8 15.5 -0.3 c13.5 -0.4 15.5 -0.2 15.5 1.2 0 1.3 -2.2 1.5 -16 1.7 l-16 0.2 0 -49.9z"/>
  <path d="M696 574.2 c0 -1.6 2.2 -3 4.1 -2.5 2.3 0.6 2.5 1.9 0.3 2.7 -2.2 0.8 -4.4 0.7 -4.4 -0.2z"/>
  <path d="M704.2 574.2 c-0.7 -0.2 -1 -0.8 -0.6 -1.3 0.3 -0.5 6.3 -0.9 13.4 -0.9 l12.8 0 2.1 -3.5 c2 -3.4 3.5 -4.3 4.4 -2.7 0.2 0.4 -0.5 2.5 -1.7 4.7 l-2.1 4 -13.6 0.1 c-7.4 0 -14.1 -0.2 -14.7 -0.4z"/>
  <path d="M768.1 573.7 c-1.7 -1.7 -1.4 -4.2 0.2 -2.9 0.8 0.7 6.9 1.3 14.7 1.4 9.4 0.2 13.5 0.7 13.7 1.5 0.6 1.6 -27 1.6 -28.6 0z"/>
  <path d="M735.6 564.1 c-1 -1.6 0.5 -4.1 2.5 -4.1 2.2 0 2.3 0.8 0.5 3.3 -1.5 1.9 -2.2 2.1 -3 0.8z"/>
  <path d="M761.1 561.2 c-1.7 -3.1 -1.3 -4 0.5 -1.4 0.9 1.3 1.4 2.6 1.1 2.9 -0.3 0.2 -1 -0.4 -1.6 -1.5z"/>
  <path d="M739.2 559.1 c-1.1 -0.6 -0.7 -2.1 1.7 -6.9 1.7 -3.4 3.1 -6.6 3.1 -7.1 0 -1.5 -4.1 -2.4 -5.2 -1.3 -0.6 0.6 -2.4 0.8 -3.9 0.5 -1.8 -0.3 -2.9 -0.1 -2.9 0.6 0 0.6 -0.7 1.1 -1.5 1.1 -0.8 0 -1.5 -0.5 -1.5 -1.1 0 -0.6 -0.9 -0.9 -2 -0.6 -1.3 0.3 -2 0 -2 -0.9 0 -1.9 -3 -0.5 -3 1.5 -0.1 1.4 -0.2 1.4 -1.5 -0.2 -1.8 -2.4 -1.4 -3.3 6.1 -14.5 l6.1 -9.3 -2.8 -2.9 c-2 -1.9 -2.7 -3.4 -2.2 -4.6 0.4 -1.1 0.2 -1.5 -0.4 -1.1 -0.6 0.4 -2.8 -1.8 -4.9 -4.8 -2.2 -3 -5.8 -8 -8.1 -11.2 -2.4 -3.2 -4.3 -6.2 -4.3 -6.6 0 -0.5 -1.6 -2.7 -3.5 -5 -2 -2.3 -3.3 -4.7 -3 -5.4 0.2 -0.8 -0.2 -1.6 -1 -1.9 -4 -1.6 0 -2.2 16 -2.3 l17.5 -0.2 0 2.4 c0 1.6 0.7 2.6 2 3 1.8 0.5 4.6 5.1 4.2 7 -0.1 0.4 0.2 0.7 0.7 0.7 1 0 2.5 3.5 2.6 6 0.1 0.8 0.6 1.4 1.3 1.3 1.5 -0.4 3.5 3.4 2.6 5 -0.5 0.7 -0.1 0.6 1 -0.2 1 -0.8 2.6 -3.2 3.7 -5.3 1.1 -2.2 2.6 -4.1 3.4 -4.5 0.8 -0.3 1.2 -0.9 0.9 -1.4 -0.3 -0.5 0 -0.9 0.5 -0.9 0.6 0 1.1 -0.7 1.1 -1.7 0 -2.7 5 -8.5 6.7 -7.8 1.3 0.4 1.3 0.3 0.4 -0.9 -0.9 -1.1 -0.8 -1.5 0.4 -1.9 2.3 -0.9 33.3 -0.8 33.9 0.1 0.3 0.5 -0.6 2 -2 3.5 -1.3 1.4 -2.4 2.9 -2.4 3.3 0 0.8 -3.8 6 -11.3 15.7 -2.7 3.4 -5.4 7.1 -5.9 8.2 -1 1.9 -4.2 5.9 -9.3 11.7 -2 2.3 -2.1 2.9 -0.9 4.6 0.7 1.1 1 2.2 0.7 2.6 -0.3 0.3 -0.1 0.6 0.5 0.6 1.2 0 5.8 7.1 5.4 8.3 -0.1 0.4 0.5 1 1.3 1.3 0.8 0.4 1.5 1.2 1.5 1.9 0 0.7 0.7 1.6 1.6 1.9 0.9 0.4 1.4 0.9 1.1 1.2 -0.3 0.4 0.4 1.5 1.6 2.5 1.7 1.4 1.9 1.8 0.6 1.9 -0.9 0 -2.4 -0.9 -3.5 -2.1 -1 -1.1 -2.6 -1.8 -3.6 -1.6 -1 0.3 -1.8 0.2 -1.8 -0.2 0 -1.5 -4.2 -3.2 -5.4 -2.2 -0.7 0.6 -4.8 1.4 -9 1.7 -8.3 0.7 -8.6 1.3 -5.2 6.9 0.7 1.1 1.6 3.4 2 5 l0.7 3 -2.6 -3.5 c-1.4 -1.9 -2.8 -4.5 -3.2 -5.8 -0.5 -2.1 -0.7 -2.2 -2.3 -0.7 -0.9 0.8 -2 1.2 -2.5 0.8 -0.4 -0.5 -0.5 -0.2 -0.1 0.5 0.4 0.7 0.2 2 -0.5 2.9 -1.6 1.8 -3.4 4.9 -4.8 8.1 -1.2 2.5 -1.1 2.5 -2.9 1.3z"/>
  <path d="M711.9 552.5 c1.6 -3 4 -5.9 4.5 -5.4 0.3 0.2 -0.9 2 -2.5 3.9 -1.7 1.9 -2.6 2.6 -2 1.5z"/>
  <path d="M787.5 553 c-0.3 -0.5 0.1 -1 0.9 -1 0.8 0 1.8 0.5 2.1 1 0.3 0.6 -0.1 1 -0.9 1 -0.8 0 -1.8 -0.4 -2.1 -1z"/>
  <path d="M787 550.3 c-1.6 -0.7 -4.1 -3.6 -3.5 -4.1 0.7 -0.7 4.3 1.8 4.9 3.3 0.3 0.8 0.4 1.5 0.3 1.4 -0.1 0 -0.9 -0.3 -1.7 -0.6z"/>
  <path d="M672.7 462.4 c-0.4 -0.4 -2.3 -0.8 -4.3 -1 -2 -0.1 -4.1 -0.9 -4.5 -1.6 -0.5 -0.7 -0.9 -1 -0.9 -0.6 0 1.1 -4.4 -3.4 -6.4 -6.6 -3.4 -5.4 -0.7 -19.6 3.9 -20.4 1.1 -0.2 2.8 -1.3 3.9 -2.4 1.1 -1.1 2.6 -1.8 3.7 -1.5 1.1 0.3 1.7 0.1 1.3 -0.4 -0.8 -1.3 9 -1.1 10.3 0.2 0.6 0.6 1 1.7 0.9 2.3 -0.2 0.6 -0.1 0.8 0.1 0.4 0.3 -0.4 1.4 -0.2 2.6 0.5 4.2 2.3 5.7 4 5.2 5.8 -0.3 0.9 -0.1 2.1 0.6 2.4 0.8 0.6 0.7 1 -0.2 1.6 -1.1 0.7 -1 0.9 0.4 0.9 1.3 0 1.7 0.9 1.7 3.9 0 2.2 -0.4 4.3 -1 4.6 -0.5 0.3 -1 1.4 -1 2.4 0 2.2 -3 5.1 -5.3 5.1 -0.9 0 -1.7 0.7 -1.7 1.6 0 0.8 -0.4 1.3 -0.9 0.9 -0.5 -0.3 -1.2 -0.1 -1.6 0.5 -0.4 0.6 -1 0.8 -1.5 0.5 -0.5 -0.3 -1.1 -0.1 -1.5 0.5 -0.7 1.1 -2.8 1.3 -3.8 0.4z"/>
 </g>
 <g fill="#f0f1f0">
  <path d="M432.5 576.2 c-4.5 -0.7 -10.5 -3.4 -9.9 -4.4 0.5 -0.7 0.2 -0.8 -0.5 -0.3 -0.8 0.4 -2.7 -0.7 -5.2 -3.1 l-3.9 -3.8 0 5.1 0 5.1 -16.5 -0.2 -16.5 -0.1 0 -18.7 0.1 -18.8 2.6 0 c1.4 0 3.2 0.8 3.9 1.8 1.2 1.5 1.3 1.5 1.4 0.1 0 -1.7 0.8 -1.8 16.3 -3.6 l4.7 -0.5 0 -3.9 c0 -3.5 0.3 -3.9 2.4 -3.9 2.1 0 2.6 0.7 3.7 5.3 0.8 2.8 1.3 5.8 1.3 6.4 -0.1 0.7 0.2 1 0.7 0.8 1 -0.7 3.1 3 2.1 4 -0.4 0.3 -0.2 0.5 0.3 0.3 1.2 -0.4 6.7 3.7 5.9 4.4 -0.2 0.3 0.7 0.3 2.1 0 1.4 -0.2 2.5 -0.1 2.3 0.4 -0.4 1.3 0.5 1.6 2.5 0.9 0.9 -0.4 2.8 -0.5 4.2 -0.3 1.4 0.3 2.2 0.1 1.8 -0.5 -0.3 -0.5 0 -0.8 0.8 -0.5 0.7 0.2 1.8 0.1 2.4 -0.3 5.1 -4 8.5 -7.3 9 -8.9 0.5 -1.5 1.7 -1.8 7.2 -1.9 3.7 0 6.9 -0.4 7.2 -0.9 0.3 -0.5 2.4 -1.2 4.6 -1.6 3.7 -0.7 9.6 -4 10.3 -5.8 0.2 -0.4 1.8 -0.9 3.5 -0.9 2.5 -0.1 2.7 -0.3 0.9 -0.6 -2 -0.4 -2.3 -1 -2 -4.1 0.2 -3 0.8 -3.8 2.6 -4 2.7 -0.4 2.9 -2.2 0.2 -2.2 -1.7 0 -2 -0.7 -2 -4 0 -3.5 0.3 -4 2.4 -4 2.9 0 3.7 2.4 2.9 9.1 -0.4 3.3 -0.2 4.9 0.6 4.9 0.6 0 1.1 1.2 1.1 2.6 0 1.4 -0.4 2.3 -0.8 2 -0.5 -0.3 -0.8 1.2 -0.7 3.2 0.1 3.5 -0.8 8.7 -2.2 12.2 -0.3 0.8 -0.5 1.8 -0.5 2.3 0.1 0.4 -0.3 0.6 -1 0.5 -0.7 -0.2 -1.2 0.6 -1.2 1.7 0 1.1 -0.7 2.6 -1.6 3.3 -1.3 1.2 -1.3 1.2 0 0.6 1.1 -0.6 1 -0.2 -0.2 1.3 -1 1.1 -1.8 2.4 -1.8 2.9 0 1.8 -13.8 14.7 -14.9 14 -0.6 -0.4 -1.1 -0.2 -1.1 0.5 0 0.7 -0.3 0.9 -0.6 0.6 -0.4 -0.4 -2 0.4 -3.5 1.8 -2.9 2.4 -6.5 3.1 -19.4 3.8 -3.3 0.1 -6.9 0.1 -8 -0.1z"/>
  <path d="M233.5 574 c-0.3 -0.5 0 -68.4 0.3 -72.2 0.1 -1.1 1 -1.8 2.2 -1.8 1.9 0 2 0.7 2.1 14.3 0.1 17.7 0.5 19.1 4.7 19.5 1.8 0.2 3.2 0.7 3.2 1.2 0 1.2 9.2 1.8 11.3 0.8 1 -0.5 1.7 -2 1.7 -3.8 0 -2.7 0.3 -3 3.4 -3 3.2 0 3.4 0.2 3 3.3 -0.1 1.7 -0.3 3.3 -0.4 3.5 -0.2 0.2 -0.3 4.4 -0.1 6.6 0.2 2.2 6.8 2.9 29.3 2.8 17.9 -0.1 20.8 0.1 20.8 1.4 0 0.8 0.5 1.2 1.1 0.9 1.7 -1.1 0.8 8.8 -1 10.3 -1.4 1.1 -1.4 1.2 0 0.7 1.4 -0.5 1.6 0.6 1.8 7.7 l0.1 8.3 -41.6 0 c-22.8 0.1 -41.7 -0.2 -41.9 -0.5z"/>
  <path d="M331.3 572.3 c0 -1.3 0.4 -2 1 -1.6 0.6 0.4 0.7 0.1 0.1 -0.8 -0.5 -0.8 -0.9 -8.3 -1 -16.6 l-0.1 -15.3 2.8 0 c2 0 2.9 -0.5 2.9 -1.6 0 -1.3 1.1 -1.5 7.3 -1 3.9 0.3 9.5 0.6 12.4 0.6 l5.1 -0.1 0.5 3.8 c0.9 5.7 0.7 10.2 -0.4 10.8 -0.5 0.4 -0.9 1.2 -0.9 1.8 0 0.7 0.4 0.6 1 -0.3 0.6 -1 0.9 2.6 0.7 10.4 l-0.2 12 -13 0 c-7.1 0 -13.9 -0.4 -15 -0.8 -1.6 -0.6 -1.7 -0.6 -0.5 0.3 1.2 0.8 1.1 1 -0.6 0.9 -1.5 -0.2 -2.1 -0.9 -2.1 -2.5z"/>
  <path d="M411 518 c0 -3.6 0.3 -4 2.4 -4 2.3 0 2.3 0.2 1.4 4 -0.6 2.2 -1.6 4 -2.4 4 -1 0 -1.4 -1.3 -1.4 -4z"/>
  <path d="M454.5 519 c0.4 -0.7 0.3 -1.5 -0.2 -1.9 -0.6 -0.3 -1.3 -1.6 -1.7 -2.8 -0.6 -2 -0.4 -2.3 1.9 -2.3 2.4 0 2.6 0.3 2.3 3.7 -0.2 2 -0.9 3.9 -1.7 4.1 -0.9 0.3 -1.1 0 -0.6 -0.8z"/>
  <path d="M480 498 c0 -2.2 0.4 -2.8 1.5 -2.4 1.4 0.6 3.5 3.5 3.5 4.8 0 0.3 -1.1 0.6 -2.5 0.6 -2.1 0 -2.5 -0.5 -2.5 -3z"/>
  <path d="M471.7 489.3 c-0.4 -0.3 -0.7 -2 -0.7 -3.7 0 -1.7 0.4 -2.6 0.8 -2 0.4 0.6 1.6 1.4 2.6 1.7 1 0.4 1.6 1 1.3 1.4 -0.4 0.3 0.1 1.2 1.1 1.9 1.5 1.2 1.4 1.3 -1.4 1.4 -1.7 0 -3.4 -0.3 -3.7 -0.7z"/>
  <path d="M359.7 487.3 c-1.2 -1.1 -0.8 -11.1 0.4 -11.9 0.9 -0.5 1 0.1 0.5 2.2 -0.5 1.9 -0.4 2.6 0.2 1.9 0.6 -0.5 1.2 -1.9 1.5 -3 0.3 -1.1 0.5 0.6 0.6 3.8 0.1 3.7 -0.3 5.6 -0.9 5.2 -0.5 -0.3 -1 -0.2 -1 0.4 0 0.5 0.6 1.2 1.3 1.4 0.8 0.4 0.6 0.6 -0.4 0.6 -0.9 0.1 -1.9 -0.2 -2.2 -0.6z"/>
  <path d="M410 481.5 c0 -3.8 0.3 -4.5 2 -4.5 1.6 0 2 0.7 2 3.1 0 2.4 0.4 3 1.5 2.5 1 -0.4 1.5 0.1 1.5 1.4 0 1.6 -0.7 2 -3.5 2 -3.5 0 -3.5 0 -3.5 -4.5z"/>
  <path d="M462 479.5 c0 -2.7 0.1 -2.8 2.4 -1.9 0.9 0.3 1.3 1 1 1.5 -0.3 0.5 -0.2 0.9 0.3 0.8 1.8 -0.3 3.3 0.2 3.3 1.1 0 0.6 -1.6 1 -3.5 1 -3.1 0 -3.5 -0.3 -3.5 -2.5z"/>
  <path d="M342 462 c0 -0.5 -0.7 -0.7 -1.5 -0.4 -1.7 0.7 -1.9 -0.4 -0.6 -2.5 1.3 -2 13.1 -0.5 13.1 1.6 0 1 -0.6 1.4 -2 1 -1.1 -0.3 -1.8 -0.1 -1.4 0.4 0.3 0.5 -1.3 0.9 -3.5 0.9 -2.3 0 -4.1 -0.4 -4.1 -1z"/>
  <path d="M410 457.9 c0 -4.3 0.3 -5 1.8 -4.7 2.6 0.5 2.6 9.8 0 9.8 -1.5 0 -1.8 -0.9 -1.8 -5.1z"/>
  <path d="M335.8 459.7 c-0.4 -0.9 -1.2 -1.6 -1.7 -1.5 -0.5 0.2 -0.8 0 -0.7 -0.4 0 -0.4 -0.8 -1.4 -1.9 -2.2 -1.9 -1.5 -1.9 -1.5 1.3 -1.6 3.5 0 4.6 1.4 4 5.2 -0.3 2 -0.4 2 -1 0.5z"/>
  <path d="M358.7 455.7 c-1.4 -3.8 -0.8 -5.7 1.8 -5.7 1.4 0 2.5 0.3 2.5 0.8 0 1.2 -2 3.8 -2.1 2.7 0 -0.5 -0.4 0.1 -0.8 1.5 -0.6 2.2 -0.8 2.3 -1.4 0.7z"/>
  <path d="M410 441.5 c0 -4.2 0.4 -5.5 1.5 -5.5 1.7 0 2.6 3.1 2.3 7.7 -0.2 2.4 -0.8 3.3 -2 3.3 -1.5 0 -1.8 -0.9 -1.8 -5.5z"/>
  <path d="M232.8 444.3 c-0.2 -1 -0.6 -4.4 -0.7 -7.5 -0.2 -5.3 -0.1 -5.8 1.8 -5.8 1.9 0 2.1 0.6 2.1 7.5 0 5.7 -0.3 7.5 -1.4 7.5 -0.7 0 -1.6 -0.8 -1.8 -1.7z"/>
  <path d="M354.7 435.3 c-0.4 -0.3 -0.7 -2 -0.7 -3.7 0.1 -2.8 0.2 -2.9 1.4 -1.4 0.7 1 1.5 1.5 1.8 1.3 0.3 -0.3 1.3 0.6 2.2 2 1.6 2.5 1.6 2.5 -1.2 2.5 -1.6 0 -3.2 -0.3 -3.5 -0.7z"/>
  <path d="M380 431 c0 -1.6 0.5 -3 1.1 -3 0.5 0 0.7 0.6 0.3 1.3 -0.6 1 -0.4 1 0.7 0 2.3 -2.2 3.9 -1.5 3.9 1.7 0 2.7 -0.3 3 -3 3 -2.7 0 -3 -0.3 -3 -3z"/>
  <path d="M406 430.6 c0 -2.3 0.4 -2.6 3.9 -2.6 3.3 0 3.8 0.3 3.7 2.3 -0.1 1.8 -0.8 2.3 -3.8 2.5 -3.5 0.3 -3.8 0.1 -3.8 -2.2z"/>
  <path d="M345.2 429.3 c0.4 -1.9 3.4 -2.6 6 -1.2 2.7 1.4 1.2 2.9 -2.8 2.9 -2.8 0 -3.5 -0.4 -3.2 -1.7z"/>
 </g>
 <g fill="#fefefe">
  <path d="M235 574 c0 -0.5 1.1 -1 2.5 -1 1.4 0 2.5 0.5 2.5 1 0 0.6 -1.1 1 -2.5 1 -1.4 0 -2.5 -0.4 -2.5 -1z"/>
  <path d="M259 574 c0 -0.5 0.7 -1 1.5 -1 0.8 0 1.5 0.5 1.5 1 0 0.6 -0.7 1 -1.5 1 -0.8 0 -1.5 -0.4 -1.5 -1z"/>
  <path d="M267 574 c0 -0.5 0.7 -1 1.5 -1 0.8 0 1.5 0.5 1.5 1 0 0.6 -0.7 1 -1.5 1 -0.8 0 -1.5 -0.4 -1.5 -1z"/>
  <path d="M275 574 c0 -0.5 1.1 -1 2.5 -1 1.4 0 2.5 0.5 2.5 1 0 0.6 -1.1 1 -2.5 1 -1.4 0 -2.5 -0.4 -2.5 -1z"/>
  <path d="M293 574 c0 -0.5 0.7 -1 1.5 -1 0.8 0 1.5 0.5 1.5 1 0 0.6 -0.7 1 -1.5 1 -0.8 0 -1.5 -0.4 -1.5 -1z"/>
  <path d="M312 573.9 c0 -0.6 0.9 -1.3 2 -1.6 1.6 -0.4 1.8 -0.8 0.9 -1.9 -0.9 -1.1 -0.8 -1.4 0.5 -1.4 1.1 0 1.6 0.9 1.6 3 0 2.5 -0.4 3 -2.5 3 -1.4 0 -2.5 -0.5 -2.5 -1.1z"/>
  <path d="M339 574 c0 -0.5 1.1 -1 2.5 -1 1.4 0 2.5 0.5 2.5 1 0 0.6 -1.1 1 -2.5 1 -1.4 0 -2.5 -0.4 -2.5 -1z"/>
  <path d="M347 574 c0 -0.5 0.7 -1 1.5 -1 0.8 0 1.5 0.5 1.5 1 0 0.6 -0.7 1 -1.5 1 -0.8 0 -1.5 -0.4 -1.5 -1z"/>
  <path d="M380 574 c0 -0.5 0.9 -1 2 -1 1.1 0 2 0.5 2 1 0 0.6 -0.9 1 -2 1 -1.1 0 -2 -0.4 -2 -1z"/>
  <path d="M389 574 c0 -0.5 0.9 -1 2 -1 1.1 0 2 0.5 2 1 0 0.6 -0.9 1 -2 1 -1.1 0 -2 -0.4 -2 -1z"/>
  <path d="M403 574 c0 -0.5 1.4 -1 3 -1 1.7 0 3 -0.4 3 -1 0 -0.5 0.7 -1 1.5 -1 0.8 0 1.5 0.9 1.5 2 0 1.7 -0.7 2 -4.5 2 -2.5 0 -4.5 -0.4 -4.5 -1z"/>
  <path d="M473.5 561 c-0.8 -1.3 1.2 -4 3.1 -4 2 0 1.7 1.4 -0.5 3.4 -1.3 1.2 -2.1 1.4 -2.6 0.6z"/>
  <path d="M477.2 556.1 c-1 -0.6 -0.9 -1.3 0.7 -3.2 1.3 -1.6 2.3 -2.1 3 -1.4 1.4 1.4 -2 5.7 -3.7 4.6z"/>
  <path d="M422 547 c0 -0.5 -0.6 -1 -1.4 -1 -0.7 0 -1.9 -0.7 -2.6 -1.5 -1.7 -2.1 -0.3 -1.9 3.6 0.6 3.7 2.3 4.1 2.9 1.9 2.9 -0.8 0 -1.5 -0.4 -1.5 -1z"/>
  <path d="M331.1 544.3 c-0.1 -2.6 0.2 -3.1 1.7 -2.7 1.4 0.5 1.5 0.4 0.2 -0.5 -1.3 -0.9 -1.5 -5.9 -1.6 -33.3 l0 -32.3 14.8 0 14.9 0 -0.6 2.3 c-0.4 1.7 -0.2 2.2 0.6 1.6 0.9 -0.5 1.1 0.4 0.6 3.4 -0.3 2.3 -0.1 4.2 0.4 4.2 0.5 0 0.8 3 0.8 6.8 -0.1 5.5 -0.3 6.1 -0.9 3.2 l-0.7 -3.5 -0.2 4.3 c-0.1 3.2 0.2 4.1 1.2 3.6 0.8 -0.5 0.8 -0.2 -0.2 0.9 -0.9 1.1 -1 1.7 -0.2 1.7 0.7 0 1.1 3.5 1.1 11 0 8.1 -0.3 11 -1.2 11 -1 0 -1 0.2 0 0.9 0.9 0.5 1.2 3 1 8.7 -0.3 6.6 -0.6 7.9 -2 8.2 -1.4 0.3 -1.8 -0.4 -1.9 -2.5 -0.1 -2.3 -0.2 -2.4 -0.6 -0.5 -0.5 2.5 -3.4 3 -5.5 0.9 -2.8 -2.8 -12.8 -4.7 -12.8 -2.5 0 0.7 1.3 0.9 3.5 0.5 2.5 -0.4 4.1 -0.1 5.7 1.2 2.2 1.8 2.1 1.9 -5.2 1.8 -9.2 0 -11.2 0.4 -12.1 2.9 -0.6 1.5 -0.8 1.2 -0.8 -1.3z"/>
  <path d="M380.3 487.5 c0 -33 0.2 -59.2 0.4 -58.3 0.5 2.2 2.3 2.4 2.3 0.4 0 -1.2 2.6 -1.5 14.9 -1.5 13.3 0 15 0.2 15.4 1.7 0.3 0.9 0.3 7.5 0.1 14.7 -0.2 7.2 -0.3 13.9 -0.2 15 0.1 1.1 0.2 6.8 0.2 12.8 0.1 6.4 0.5 10.7 1.1 10.7 0.6 0 2.8 -1.6 5 -3.5 2.2 -1.9 4.4 -3.6 5 -3.7 2.3 -0.3 3.1 -0.5 5.8 -1.6 5.8 -2.4 28.7 -1 28.7 1.7 0 0.4 1 0.8 2.2 0.8 1.3 0.1 2.7 0.8 3.3 1.5 0.5 0.7 1.7 1.4 2.5 1.6 2.3 0.5 13 11.5 13 13.4 0 0.9 0.8 2.2 1.8 2.7 0.9 0.6 1.4 1.1 1 1.1 -0.5 0 0 0.8 1.1 1.9 2.4 2.4 4.9 12.3 3.2 12.9 -1.6 0.5 -1.4 2.2 0.3 2.2 1.9 0 0.9 7 -1.2 8.6 -1.3 0.9 -1.2 1.2 0.6 1.6 1.8 0.5 2.1 1.2 1.8 3.8 -0.2 1.8 -1 3.6 -1.7 4.1 -1.2 0.7 -1.2 0.9 0 0.9 1 0 1.2 1.1 0.6 4.8 -0.8 5.7 -1.2 6.3 -3 5.6 -1.5 -0.6 -1.5 -2.1 0.1 -9.6 0.3 -1.7 0.1 -2.8 -0.5 -2.8 -0.6 0 -0.7 0.7 -0.4 1.7 0.4 1.1 0.3 1.4 -0.5 0.9 -0.7 -0.4 -2.4 0.1 -4 1.2 -1.5 1.1 -3.6 2.2 -4.7 2.4 -1.5 0.3 -1.1 0.6 1.3 0.9 2.2 0.4 3.2 0.2 3.2 -0.7 0 -0.7 0.9 -1.8 1.9 -2.4 1.9 -0.9 1.9 -0.9 0.4 2.1 -1.3 2.7 -1.9 3 -4.4 2.5 -3.6 -0.8 -9 -1.5 -6.6 -0.9 3.8 1 1.3 2.1 -4.5 2 -3.5 0 -8.1 0.3 -10.2 0.8 -3.2 0.7 -3.8 0.6 -3.1 -0.6 0.4 -0.8 -0.7 0 -2.6 1.6 -1.8 1.7 -2.7 2.1 -1.8 1 1.4 -1.8 3.4 -6.2 5.4 -12 0.4 -1.1 0.8 -4.7 0.9 -8 0.1 -4.8 -0.5 -7.1 -2.7 -11.5 -1.6 -3 -3.8 -6.4 -4.8 -7.6 -1.1 -1.1 -1.6 -2.4 -1.2 -2.9 0.5 -0.4 0.3 -0.6 -0.2 -0.2 -1 0.5 -9.7 -2 -12.1 -3.6 -0.7 -0.4 -1.4 0 -1.8 0.8 -0.3 0.8 -1.3 1.5 -2.3 1.5 -1 0 -2.9 0.9 -4.3 2 -1.4 1.1 -3.3 2 -4.3 2 -1 0 -1.6 0.4 -1.2 1 0.3 0.5 -0.3 1.8 -1.5 3 -1.1 1.1 -2 2.9 -2 4.1 0 1.1 -0.5 2.9 -1.1 4 -0.5 1.1 -1.1 4.7 -1.1 7.9 0 3.3 -0.5 6 -0.9 6 -0.5 0 -0.9 0.5 -0.9 1 0 0.6 0.6 1 1.4 1 1.6 0 3.8 5.4 3 7.3 -0.6 1.6 -6.2 3.8 -6.9 2.7 -0.5 -0.8 2.4 -2.5 3.8 -2.1 0.5 0.1 0.6 -0.3 0.2 -0.9 -0.4 -0.7 -1.8 -0.2 -3.7 1.1 -2.4 1.8 -4.4 2.2 -10.2 2.2 -4.5 -0.1 -8.8 0.6 -11.9 1.7 -4.4 1.7 -4.8 1.7 -4.6 0.2 0.2 -2.9 -0.1 -4.2 -1 -4.2 -0.6 0 -1.2 1.7 -1.4 3.8 -0.2 2 -0.4 -23.3 -0.4 -56.3z m15.5 52.8 c-1 -0.2 -2.6 -0.2 -3.5 0 -1 0.3 -0.2 0.5 1.7 0.5 1.9 0 2.7 -0.2 1.8 -0.5z m11 -0.9 c-1.3 -1.3 -2.1 -1.4 -4.5 -0.5 l-2.8 1.1 3.3 -0.5 c1.7 -0.2 3.2 0 3.2 0.5 0 0.6 0.5 1 1.2 1 0.8 0 0.7 -0.6 -0.4 -1.6z"/>
  <path d="M264.5 545 c-0.3 -0.6 0.5 -1 1.9 -1 1.4 0 2.8 0.5 3.1 1 0.3 0.6 -0.5 1 -1.9 1 -1.4 0 -2.8 -0.4 -3.1 -1z"/>
  <path d="M252.7 544.3 c-0.4 -0.7 -0.2 -1.5 0.3 -1.8 1.2 -0.7 -1.6 -3.4 -3.5 -3.5 -0.5 0 -0.4 0.4 0.4 0.9 0.9 0.6 -0.5 0.8 -3.9 0.6 -4.2 -0.3 -5.6 0 -6.6 1.3 -0.7 0.9 -1.6 1.3 -2.1 0.9 -0.4 -0.5 0 -1.3 1 -1.8 2 -1.2 2.3 -2.9 0.4 -2.9 -2.4 0 -3.4 -3.6 -3.6 -14 -0.2 -6.1 -0.8 -11.1 -1.4 -11.9 -0.9 -1.1 -0.9 -1.5 0 -1.8 0.9 -0.3 0.9 -1.1 0.2 -3.1 -0.7 -1.8 -0.7 -2.8 0 -3 0.6 -0.2 0.8 -0.9 0.4 -1.5 -0.4 -0.7 -0.8 -16.1 -1 -34.3 -0.1 -18.2 -0.5 -33.8 -0.8 -34.7 -0.4 -0.9 -0.5 -2.4 -0.3 -3.4 0.3 -1.6 1.7 -1.8 16.1 -1.9 9.3 -0.1 16 0.2 16.3 0.8 0.4 0.5 0.6 2.8 0.5 5.1 -0.1 6.4 0 44.8 0.2 58 0.1 6.4 -0.2 11.7 -0.6 11.7 -0.5 0 -0.5 0.5 -0.1 1.1 0.5 0.9 0.6 7.8 0.3 15.2 -0.1 0.6 0.2 3.4 0.5 6 0.5 4.3 0.3 4.9 -1.7 5.6 -2 0.8 -2 1 -0.4 1.6 2 0.8 2.3 2.5 0.4 2.5 -0.7 0 -2.1 1.6 -3.1 3.5 -1.3 2.4 -2.6 3.5 -4.2 3.5 -1.2 0 -2.4 0.5 -2.6 1.2 -0.3 0.9 -0.6 0.9 -1.1 0.1z"/>
  <path d="M344 462.1 c0 -0.5 -1.3 -0.7 -2.9 -0.5 -2.3 0.4 -3.7 -0.4 -8.1 -4.6 l-5.2 -5 0.4 -7.5 c0.2 -5.4 0.9 -8.1 2.4 -10.1 1.1 -1.5 2.3 -2.5 2.7 -2.3 0.4 0.2 1.4 -0.7 2.3 -1.9 1.3 -2 2.2 -2.3 4.8 -1.8 2.2 0.4 2.7 0.3 1.6 -0.4 -1.2 -0.8 -1.1 -1 0.8 -1 1.6 0 2.1 0.4 1.6 1.3 -0.5 0.9 -0.4 0.9 0.5 0.1 2.2 -2.1 9 0.3 13.5 4.7 3.4 3.3 3.8 4.1 2.6 4.9 -1.3 0.8 -1.3 1.1 -0.1 1.9 1.9 1.2 2.3 12.1 0.4 12.8 -0.7 0.3 -1.3 1.3 -1.3 2.3 0 2.3 -2.6 4.4 -4.1 3.4 -0.7 -0.4 -0.9 -0.3 -0.6 0.3 1 1.6 -2 3.6 -4.3 3 -1.1 -0.3 -2 -0.1 -2 0.4 0 0.5 -1.1 0.9 -2.5 0.9 -1.4 0 -2.5 -0.4 -2.5 -0.9z"/>
 </g>
</svg>